<?xml version="1.0" encoding="UTF-8"?>
<svg width="20px" height="18px" viewBox="0 0 20 18" version="1.1" xmlns="http://www.w3.org/2000/svg" xmlns:xlink="http://www.w3.org/1999/xlink">
    <!-- Generator: Sketch 48.2 (47327) - http://www.bohemiancoding.com/sketch -->
    <title>beiz</title>
    <desc>Created with Sketch.</desc>
    <defs></defs>
    <g id="icon" stroke="none" stroke-width="1" fill="none" fill-rule="evenodd">
        <g id="beiz" fill="#E85050" stroke="#E85050" stroke-width="0.5">
            <path d="M19.375027,12.3472904 C19.375027,12.8299265 18.9853219,13.2227568 18.5061397,13.2227568 L10.4369958,13.2227568 C10.0806214,13.2227568 9.73512492,13.3512837 9.46504801,13.5850992 L5.93748039,16.6307982 L5.93748039,14.7275103 C5.93748039,13.8979022 5.26732259,13.2226444 4.44362008,13.2226444 L1.4938603,13.2226444 C1.01467809,13.2226444 0.624945088,12.8299265 0.624945088,12.347178 L0.624945088,1.50495019 C0.624945088,1.02211739 1.01467809,0.629483813 1.4938603,0.629483813 L18.5061397,0.629483813 C18.9852103,0.629483813 19.375027,1.02211739 19.375027,1.50495019 L19.375027,12.3472904 Z M18.5061397,0 L1.4938603,0 C0.670157798,0 0,0.675145415 0,1.50495019 L0,12.3472904 C0,13.1772076 0.670157798,13.8522406 1.4938603,13.8522406 L4.44362008,13.8522406 C4.9228023,13.8522406 5.3125353,14.2447618 5.3125353,14.7275103 L5.3125353,18 L9.87176716,14.0628741 C10.0290773,13.9270975 10.2294524,13.8522406 10.4369958,13.8522406 L18.5062513,13.8522406 C19.3298143,13.8522406 20,13.1772076 20,12.3472904 L20,1.50495019 C20,0.675145415 19.3298143,0 18.5061397,0 Z M16.8750235,9.75938756 L3.12497647,9.75938756 C2.95229794,9.75938756 2.81250392,9.90055918 2.81250392,10.0742981 C2.81250392,10.2481774 2.95229794,10.3890962 3.12497647,10.3890962 L16.8750235,10.3890962 C17.0477021,10.3890962 17.1876076,10.2481774 17.1876076,10.0742981 C17.1874961,9.90055918 17.0477021,9.75938756 16.8750235,9.75938756 Z M16.8750235,6.61115361 L3.12497647,6.61115361 C2.95229794,6.61115361 2.81250392,6.75229713 2.81250392,6.92617651 C2.81250392,7.09983109 2.95229794,7.24086222 3.12497647,7.24086222 L16.8750235,7.24086222 C17.0477021,7.24086222 17.1876076,7.09983109 17.1876076,6.92617651 C17.1874961,6.75229713 17.0477021,6.61115361 16.8750235,6.61115361 Z M16.8750235,3.46314445 L3.12497647,3.46314445 C2.95229794,3.46314445 2.81250392,3.60386648 2.81250392,3.77794256 C2.81250392,3.95159714 2.95229794,4.09262827 3.12497647,4.09262827 L16.8750235,4.09262827 C17.0477021,4.09262827 17.1876076,3.95159714 17.1876076,3.77794256 C17.1874961,3.60386648 17.0477021,3.46314445 16.8750235,3.46314445 Z" id="Fill-1"></path>
        </g>
    </g>
</svg>